<svg xmlns="http://www.w3.org/2000/svg" xmlns:xlink="http://www.w3.org/1999/xlink" width="50" zoomAndPan="magnify" viewBox="0 0 37.5 37.499999" height="50" preserveAspectRatio="xMidYMid meet" version="1.0"><defs><clipPath id="id1"><path d="M 2.25 0 L 35.25 0 L 35.25 37.007812 L 2.25 37.007812 Z M 2.25 0 " clip-rule="nonzero"/></clipPath></defs><g clip-path="url(#id1)"><path fill="#ffffff" d="M 9.9375 22.671875 C 11.464844 24.101562 13.335938 25.171875 15.410156 25.75 L 11.3125 33.429688 L 10.449219 30.398438 C 10.367188 30.109375 10.171875 29.867188 9.902344 29.726562 L 9.636719 29.578125 C 9.367188 29.4375 9.054688 29.410156 8.769531 29.503906 L 5.773438 30.476562 Z M 18.90625 2.226562 C 24.910156 2.226562 29.792969 7.109375 29.792969 13.113281 C 29.792969 19.117188 24.910156 24 18.90625 24 C 12.902344 24 8.019531 19.117188 8.019531 13.113281 C 8.019531 7.109375 12.902344 2.226562 18.90625 2.226562 Z M 28.730469 29.503906 C 28.445312 29.410156 28.128906 29.4375 27.863281 29.578125 L 27.597656 29.726562 C 27.328125 29.867188 27.132812 30.109375 27.050781 30.398438 L 26.191406 33.429688 L 22.128906 25.824219 C 24.21875 25.296875 26.109375 24.261719 27.664062 22.859375 L 31.726562 30.476562 Z M 2.636719 33.09375 C 2.925781 33.445312 3.402344 33.582031 3.835938 33.441406 L 8.566406 31.90625 L 9.921875 36.691406 C 10.046875 37.128906 10.421875 37.445312 10.875 37.492188 C 10.914062 37.496094 10.957031 37.5 10.992188 37.5 C 11.402344 37.5 11.777344 37.277344 11.972656 36.910156 L 17.710938 26.167969 C 18.101562 26.203125 18.503906 26.226562 18.90625 26.226562 C 19.207031 26.226562 19.503906 26.210938 19.800781 26.195312 L 25.523438 36.910156 C 25.71875 37.273438 26.097656 37.5 26.507812 37.5 C 26.542969 37.5 26.585938 37.496094 26.625 37.492188 C 27.078125 37.445312 27.453125 37.128906 27.578125 36.691406 L 28.933594 31.90625 L 33.664062 33.441406 C 34.097656 33.582031 34.570312 33.445312 34.859375 33.09375 C 35.152344 32.746094 35.203125 32.257812 34.988281 31.855469 L 29.265625 21.136719 C 30.988281 18.917969 32.019531 16.136719 32.019531 13.113281 C 32.019531 5.882812 26.136719 0 18.90625 0 C 11.675781 0 5.792969 5.882812 5.792969 13.113281 C 5.792969 16.027344 6.746094 18.71875 8.359375 20.898438 L 2.507812 31.855469 C 2.296875 32.257812 2.347656 32.746094 2.636719 33.09375 " fill-opacity="1" fill-rule="nonzero"/></g><path fill="#ffffff" d="M 24.753906 12.601562 L 22.710938 14.59375 L 23.191406 17.410156 C 23.359375 18.390625 22.328125 19.121094 21.464844 18.664062 L 18.9375 17.335938 L 16.410156 18.664062 C 15.535156 19.125 14.515625 18.382812 14.679688 17.410156 L 15.164062 14.59375 L 13.117188 12.601562 C 12.414062 11.914062 12.800781 10.710938 13.777344 10.570312 L 16.605469 10.160156 L 17.867188 7.597656 C 18.304688 6.714844 19.570312 6.714844 20.003906 7.597656 L 21.269531 10.160156 L 24.09375 10.570312 C 25.070312 10.710938 25.460938 11.914062 24.753906 12.601562 Z M 18.9375 4.761719 C 14.320312 4.761719 10.578125 8.503906 10.578125 13.121094 C 10.578125 17.738281 14.320312 21.480469 18.9375 21.480469 C 23.554688 21.480469 27.296875 17.738281 27.296875 13.121094 C 27.296875 8.503906 23.554688 4.761719 18.9375 4.761719 " fill-opacity="1" fill-rule="nonzero"/></svg>